# xmcd
#
# Track frame offsets: 
#        150
#        19287
#        41670
#        64005
#        83110
#        105935
#        126635
#        147605
#        174202
#        195587
#        215187
#        230637
#
# Disc length: 3384 seconds
#
# Revision: 1
# Processed by: cddbd v1.5.2PL0 Copyright (c) Steve Scherf et al.
# Submitted via: ExactAudioCopy v1.1
#
DISCID=b00d360c
DTITLE=江淑娜 - 半調子Ⅳ
DYEAR=1994
DGENRE=Pop
TTITLE0=東方之珠
TTITLE1=情網
TTITLE2=花心
TTITLE3=最愛是你
TTITLE4=無情的雨無情的你
TTITLE5=太傻
TTITLE6=金思頓的夢想
TTITLE7=為愛往前飛
TTITLE8=愛全給了你
TTITLE9=忘情水
TTITLE10=管不住自己
TTITLE11=分享
EXTD=
EXTT0=
EXTT1=
EXTT2=
EXTT3=
EXTT4=
EXTT5=
EXTT6=
EXTT7=
EXTT8=
EXTT9=
EXTT10=
EXTT11=
PLAYORDER=
